<svg xmlns="http://www.w3.org/2000/svg" viewBox="0 0 100 100">
  <!-- amber blade -->
  <path d="M50,50 L50,16 Q70,16 74,36 Q74,47 50,50 Z" fill="#C9963A"/>
  <!-- teal blade -->
  <path d="M50,50 L50,16 Q70,16 74,36 Q74,47 50,50 Z" fill="#3D9E8F" transform="rotate(90 50 50)"/>
  <!-- coral blade -->
  <path d="M50,50 L50,16 Q70,16 74,36 Q74,47 50,50 Z" fill="#E07055" transform="rotate(180 50 50)"/>
  <!-- yellow blade -->
  <path d="M50,50 L50,16 Q70,16 74,36 Q74,47 50,50 Z" fill="#F5C842" transform="rotate(270 50 50)"/>
  <!-- centre pin -->
  <circle cx="50" cy="50" r="7" fill="#1C1917"/>
  <circle cx="50" cy="50" r="3.5" fill="#FEFBF3"/>
</svg>
